<svg width="149" height="32" viewBox="0 0 149 32" fill="none" xmlns="http://www.w3.org/2000/svg">
<g clip-path="url(#clip0_313_1590)">
<path d="M48.9904 24.855C44.6304 24.855 41.4004 21.585 41.4004 17.225C41.4004 12.865 44.5904 9.63505 48.9004 9.63505C53.2104 9.63505 55.4204 12.055 55.7204 14.845H52.9704C52.6404 13.615 51.8404 12.265 48.9304 12.265C46.2404 12.265 44.1404 14.095 44.1404 17.245C44.1404 20.395 46.2204 22.225 48.9304 22.225C51.9904 22.225 52.8104 20.875 53.1604 19.645H55.9104C55.5104 22.895 53.3004 24.855 48.9904 24.855ZM61.3804 14.775C62.2604 14.025 63.2404 13.815 64.5904 13.815C66.7204 13.815 68.3604 15.025 68.3604 17.405V24.555H65.8004V19.235C65.8004 17.235 65.0704 16.335 63.5504 16.335C61.8804 16.335 60.4704 17.235 60.4704 19.235V24.555H57.9304V9.42505H60.4704V14.425C60.4704 15.235 60.0504 16.215 59.7604 16.985L60.2004 17.155C60.4904 16.385 60.7604 15.305 61.3904 14.775H61.3804ZM78.5704 23.505C77.8004 24.355 76.7104 24.885 75.3204 24.885C72.2104 24.885 70.0304 22.385 70.0304 19.275C70.0304 16.165 72.2204 13.815 75.3204 13.815C76.7204 13.815 77.8004 14.295 78.5504 15.105C78.9904 15.565 79.0704 16.415 79.2804 17.025L79.7204 16.875C79.5304 16.275 79.1604 15.545 79.1604 14.915L79.1404 14.125H81.7004V24.545H79.1404L79.1604 23.695C79.1604 23.065 79.5404 22.315 79.7204 21.735L79.2604 21.585C79.0704 22.165 78.9904 23.025 78.5704 23.505ZM72.5804 19.275C72.5804 21.025 73.7304 22.505 75.4604 22.505C77.1904 22.505 78.3204 20.985 78.3804 19.275C78.3804 17.445 77.3604 16.195 75.4604 16.195C73.7304 16.195 72.5804 17.505 72.5804 19.275ZM83.9804 12.565V9.95505H86.7504V12.565H83.9804ZM84.1204 24.545V14.125H86.6404V24.545H84.1204ZM92.6304 14.665C93.5104 13.975 94.4204 13.815 95.7804 13.815C97.9104 13.815 99.5504 15.025 99.5504 17.405V24.555H96.9904V19.235C96.9904 17.235 96.2604 16.335 94.7404 16.335C93.0704 16.335 91.6604 17.235 91.6604 19.235V24.555H89.1204V14.135H91.6604V14.305C91.6604 15.135 91.2404 16.135 90.9304 16.935L91.3704 17.125C91.6804 16.335 91.9704 15.205 92.6404 14.685L92.6304 14.665ZM107.19 18.465C106.65 18.465 105.75 18.465 104.69 18.445V24.555H101.96V9.96505H107.42C110.53 9.96505 113.09 10.635 113.09 14.135C113.09 17.635 110.55 18.475 107.19 18.475V18.465ZM104.69 16.165H106.98C108.77 16.165 110.42 16.015 110.42 14.125C110.42 12.235 108.9 12.265 106.98 12.265H104.69V16.165ZM122.41 23.505C121.64 24.355 120.55 24.885 119.16 24.885C116.05 24.885 113.86 22.385 113.86 19.275C113.86 16.165 116.05 13.815 119.16 13.815C120.56 13.815 121.64 14.295 122.39 15.105C122.83 15.565 122.91 16.415 123.12 17.025L123.56 16.875C123.37 16.275 123 15.545 123 14.915L122.98 14.125H125.54V24.545H122.98L123 23.695C123 23.065 123.38 22.315 123.56 21.735L123.1 21.585C122.91 22.165 122.83 23.025 122.41 23.505ZM116.43 19.275C116.43 21.025 117.58 22.505 119.31 22.505C121.04 22.505 122.17 20.985 122.23 19.275C122.23 17.445 121.21 16.195 119.31 16.195C117.58 16.195 116.43 17.505 116.43 19.275ZM137.56 21.175C137.56 23.195 135.98 24.885 132.58 24.885C128.99 24.885 127.31 22.755 127.31 21.005H129.87C129.87 21.545 130.89 22.485 132.85 22.485C134.43 22.485 134.95 21.925 134.95 21.335C134.95 19.295 127.38 20.645 127.38 16.895C127.38 15.265 128.94 13.815 132.24 13.815C135.93 13.815 137.33 15.625 137.33 17.085H134.77C134.77 16.415 133.79 15.895 132.1 15.895C130.95 15.895 129.95 16.205 129.95 16.875C129.95 18.375 137.56 16.935 137.56 21.165V21.175ZM149 21.175C149 23.195 147.42 24.885 144.02 24.885C140.43 24.885 138.75 22.755 138.75 21.005H141.31C141.31 21.545 142.33 22.485 144.29 22.485C145.87 22.485 146.4 21.925 146.4 21.335C146.4 19.295 138.83 20.645 138.83 16.895C138.83 15.265 140.39 13.815 143.69 13.815C147.38 13.815 148.78 15.625 148.78 17.085H146.22C146.22 16.415 145.24 15.895 143.55 15.895C142.4 15.895 141.4 16.205 141.4 16.875C141.4 18.375 149.01 16.935 149.01 21.165L149 21.175Z" fill="white"/>
<path d="M3.31004 8.98499L0.0400391 14.605L16.7 15.415L20.29 9.93499C18.46 8.13499 20.76 5.25499 22.8 6.15499L25.62 1.66499L8.89004 0.11499L5.64004 5.30499C7.59004 6.54499 5.14004 9.57499 3.32004 8.98499H3.31004Z" fill="white" fill-opacity="0.5"/>
<path fill-rule="evenodd" clip-rule="evenodd" d="M3.31004 8.98499C3.62004 9.08499 3.94004 9.07499 4.26004 8.99499C5.83004 8.59499 7.25004 6.33499 5.63004 5.30499L8.89004 0.11499L25.63 1.67499L22.81 6.16499C20.77 5.26499 18.46 8.13499 20.3 9.94499L16.71 15.425L0.0400391 14.605L3.32004 8.98499H3.31004ZM1.45004 13.845L3.75004 9.89499C4.23004 9.89499 4.68004 9.77499 5.08004 9.58499C5.67004 9.30499 6.19004 8.84499 6.57004 8.31499C6.94004 7.79499 7.21004 7.14499 7.19004 6.45499C7.17004 5.98499 7.02004 5.53499 6.72004 5.15499L9.32004 0.99499L24.2 2.38499L22.43 5.20499C21.2 5.00499 20.06 5.67499 19.42 6.56499C18.74 7.50499 18.5 8.85499 19.26 10.005L16.26 14.575L1.44004 13.855L1.45004 13.845Z" fill="white"/>
<path d="M21.95 11.2649L18.5 16.5549L25.81 30.8949L29.47 24.9549C27.51 22.4249 31.07 19.5149 31.96 21.2549L34.52 17.3349L27.18 2.94495L24.43 7.32495C25.88 10.1749 22.7 12.7649 21.94 11.2749L21.95 11.2649Z" fill="white" fill-opacity="0.5"/>
<path fill-rule="evenodd" clip-rule="evenodd" d="M21.95 11.2649C22.04 11.4449 22.17 11.5649 22.32 11.6349C22.41 11.6749 22.51 11.6949 22.62 11.7049C23.78 11.7349 25.6 9.60495 24.43 7.32495L27.18 2.94495L34.52 17.3349L31.96 21.2549C31.81 20.9549 31.57 20.7949 31.3 20.7449C30 20.5149 27.85 22.8649 29.47 24.9549L25.81 30.8949L18.5 16.5549L21.95 11.2649ZM19.46 16.6049L22.16 12.4649C22.46 12.5549 22.76 12.5549 23.03 12.4949C23.65 12.3749 24.22 11.9649 24.65 11.4649C25.46 10.5249 25.99 9.00495 25.37 7.38495L27.11 4.61495L33.56 17.2649L31.77 20.0049C31.44 19.8749 31.1 19.8649 30.79 19.9149C30.13 20.0249 29.5 20.4249 29.03 20.9349C28.17 21.8749 27.63 23.4349 28.48 24.9649L25.87 29.1949L19.45 16.6049H19.46Z" fill="white"/>
<path d="M10.74 17.4749L16.8 17.5449L24.11 31.8849L16.74 31.6249C15.23 27.9549 11.39 29.7249 12.28 31.4649L7.33 31.3149L0 16.9349L6.09 17.1749C7.54 20.0249 11.51 18.9749 10.75 17.4749H10.74Z" fill="white" fill-opacity="0.5"/>
<path fill-rule="evenodd" clip-rule="evenodd" d="M10.73 18.2249C10.86 18.0049 10.88 17.7449 10.73 17.4749L16.79 17.5449L24.1 31.8849L16.73 31.6249C15.47 28.5549 12.58 29.2949 12.18 30.6349C12.1 30.8949 12.12 31.1849 12.27 31.4649L7.32 31.3149L0 16.9349L6.09 17.1749C7.28 19.5049 10.15 19.2249 10.74 18.2249H10.73ZM5.6 17.9849L1.39 17.8149L7.86 30.4949L11.36 30.6049C11.42 30.2949 11.55 30.0049 11.73 29.7449C12.13 29.1949 12.77 28.8249 13.46 28.6949C14.17 28.5549 14.96 28.6549 15.71 29.0849C16.33 29.4449 16.87 30.0149 17.29 30.8049L22.74 30.9949L16.3 18.3649L11.61 18.3049C11.51 18.6149 11.33 18.8649 11.12 19.0649C10.66 19.4949 9.99 19.7149 9.33 19.7749C8.1 19.8849 6.56 19.4149 5.61 17.9749L5.6 17.9849Z" fill="white"/>
<path fill-rule="evenodd" clip-rule="evenodd" d="M19.3697 24.115L17.6597 24.145L17.5897 22.145L18.4697 22.115L19.3797 24.115H19.3697ZM15.9097 24.205L14.1597 24.265L14.0897 22.265L15.8397 22.205L15.9097 24.205ZM12.4097 24.335L10.6597 24.395L10.5897 22.395L12.3397 22.335L12.4097 24.335ZM8.90969 24.455L7.15969 24.515L7.08969 22.515L8.83969 22.455L8.90969 24.455ZM5.40969 24.585L4.52969 24.615L3.67969 22.615L5.33969 22.585L5.40969 24.585Z" fill="white"/>
<path fill-rule="evenodd" clip-rule="evenodd" d="M15.4101 1.38501L14.9101 2.44501L13.1601 1.47501L13.6301 0.63501L15.4101 1.39501V1.38501ZM13.9701 4.13501L13.0301 5.82501L11.2801 4.85501L12.2201 3.16501L13.9701 4.13501ZM12.0901 7.50501L11.1501 9.19501L9.40012 8.22501L10.3401 6.53501L12.0901 7.50501ZM10.2201 10.885L9.28012 12.575L7.53012 11.605L8.47012 9.91501L10.2201 10.885ZM8.34012 14.255L7.86012 14.825L6.12012 14.125L6.59012 13.285L8.34012 14.255Z" fill="white"/>
<path fill-rule="evenodd" clip-rule="evenodd" d="M31.0002 10.825L30.7702 11.425L29.1602 10.235L29.6902 9.51501L30.9902 10.825H31.0002ZM29.7102 12.865L28.6502 14.305L27.0402 13.115L28.1002 11.675L29.7102 12.865ZM27.5902 15.745L26.5302 17.185L24.9202 15.995L25.9802 14.555L27.5902 15.745ZM25.4602 18.615L24.4002 20.055L22.7902 18.865L23.8502 17.425L25.4602 18.615ZM23.3402 21.495L22.3502 22.675L21.2002 21.025L21.7302 20.305L23.3402 21.495Z" fill="white"/>
</g>
<defs>
<clipPath id="clip0_313_1590">
<rect width="149" height="31.77" fill="white" transform="translate(0 0.11499)"/>
</clipPath>
</defs>
</svg>
