<svg width="15" height="16" viewBox="0 0 15 16" fill="none" xmlns="http://www.w3.org/2000/svg">
<path fill-rule="evenodd" clip-rule="evenodd" d="M5 1.125C5.34518 1.125 5.625 1.40482 5.625 1.75V4.25C5.625 4.59518 5.34518 4.875 5 4.875C4.65482 4.875 4.375 4.59518 4.375 4.25V1.75C4.375 1.40482 4.65482 1.125 5 1.125Z" fill="#F8F8FF"/>
<path fill-rule="evenodd" clip-rule="evenodd" d="M10 1.125C10.3452 1.125 10.625 1.40482 10.625 1.75V4.25C10.625 4.59518 10.3452 4.875 10 4.875C9.65482 4.875 9.375 4.59518 9.375 4.25V1.75C9.375 1.40482 9.65482 1.125 10 1.125Z" fill="#F8F8FF"/>
<path fill-rule="evenodd" clip-rule="evenodd" d="M3.125 3.625C2.77982 3.625 2.5 3.90482 2.5 4.25V13C2.5 13.3452 2.77982 13.625 3.125 13.625H11.875C12.2202 13.625 12.5 13.3452 12.5 13V4.25C12.5 3.90482 12.2202 3.625 11.875 3.625H3.125ZM1.25 4.25C1.25 3.21447 2.08947 2.375 3.125 2.375H11.875C12.9105 2.375 13.75 3.21447 13.75 4.25V13C13.75 14.0355 12.9105 14.875 11.875 14.875H3.125C2.08947 14.875 1.25 14.0355 1.25 13V4.25Z" fill="#F8F8FF"/>
<path fill-rule="evenodd" clip-rule="evenodd" d="M1.25 6.75C1.25 6.40482 1.52982 6.125 1.875 6.125H13.125C13.4702 6.125 13.75 6.40482 13.75 6.75C13.75 7.09518 13.4702 7.375 13.125 7.375H1.875C1.52982 7.375 1.25 7.09518 1.25 6.75Z" fill="#F8F8FF"/>
<path fill-rule="evenodd" clip-rule="evenodd" d="M4.375 9.25C4.375 8.90482 4.65482 8.625 5 8.625H5.00625C5.35143 8.625 5.63125 8.90482 5.63125 9.25C5.63125 9.59518 5.35143 9.875 5.00625 9.875H5C4.65482 9.875 4.375 9.59518 4.375 9.25Z" fill="#F8F8FF"/>
<path fill-rule="evenodd" clip-rule="evenodd" d="M6.875 9.25C6.875 8.90482 7.15482 8.625 7.5 8.625H7.50625C7.85143 8.625 8.13125 8.90482 8.13125 9.25C8.13125 9.59518 7.85143 9.875 7.50625 9.875H7.5C7.15482 9.875 6.875 9.59518 6.875 9.25Z" fill="#F8F8FF"/>
<path fill-rule="evenodd" clip-rule="evenodd" d="M9.375 9.25C9.375 8.90482 9.65482 8.625 10 8.625H10.0063C10.3514 8.625 10.6313 8.90482 10.6313 9.25C10.6313 9.59518 10.3514 9.875 10.0063 9.875H10C9.65482 9.875 9.375 9.59518 9.375 9.25Z" fill="#F8F8FF"/>
<path fill-rule="evenodd" clip-rule="evenodd" d="M4.375 11.75C4.375 11.4048 4.65482 11.125 5 11.125H5.00625C5.35143 11.125 5.63125 11.4048 5.63125 11.75C5.63125 12.0952 5.35143 12.375 5.00625 12.375H5C4.65482 12.375 4.375 12.0952 4.375 11.75Z" fill="#F8F8FF"/>
<path fill-rule="evenodd" clip-rule="evenodd" d="M6.875 11.75C6.875 11.4048 7.15482 11.125 7.5 11.125H7.50625C7.85143 11.125 8.13125 11.4048 8.13125 11.75C8.13125 12.0952 7.85143 12.375 7.50625 12.375H7.5C7.15482 12.375 6.875 12.0952 6.875 11.75Z" fill="#F8F8FF"/>
<path fill-rule="evenodd" clip-rule="evenodd" d="M9.375 11.75C9.375 11.4048 9.65482 11.125 10 11.125H10.0063C10.3514 11.125 10.6313 11.4048 10.6313 11.75C10.6313 12.0952 10.3514 12.375 10.0063 12.375H10C9.65482 12.375 9.375 12.0952 9.375 11.75Z" fill="#F8F8FF"/>
</svg>
