<svg width="25" height="24" viewBox="0 0 25 24" fill="none" xmlns="http://www.w3.org/2000/svg">
<path fill-rule="evenodd" clip-rule="evenodd" d="M3.61166 12C3.69368 12.1573 3.80197 12.355 3.93724 12.5823C4.30124 13.1938 4.85426 14.0082 5.60761 14.8195C7.11492 16.4428 9.36797 18 12.4998 18C15.6317 18 17.8847 16.4428 19.392 14.8195C20.1454 14.0082 20.6984 13.1938 21.0624 12.5823C21.1977 12.355 21.306 12.1573 21.388 12C21.306 11.8427 21.1977 11.645 21.0624 11.4177C20.6984 10.8062 20.1454 9.99176 19.392 9.18045C17.8847 7.55719 15.6317 6 12.4998 6C9.36797 6 7.11492 7.55719 5.60761 9.18045C4.85426 9.99176 4.30124 10.8062 3.93724 11.4177C3.80197 11.645 3.69368 11.8427 3.61166 12ZM22.4998 12C23.419 11.6061 23.4188 11.6057 23.4186 11.6052L23.4171 11.6018L23.4141 11.5949L23.4047 11.5736C23.397 11.5561 23.3861 11.5321 23.3723 11.5021C23.3445 11.4419 23.3044 11.3574 23.2517 11.252C23.1463 11.0413 22.9902 10.7462 22.781 10.3948C22.3637 9.69378 21.7293 8.75824 20.8576 7.81955C19.1149 5.9428 16.368 4 12.4998 4C8.63167 4 5.88472 5.9428 4.14203 7.81955C3.27038 8.75824 2.6359 9.69378 2.21865 10.3948C2.00946 10.7462 1.85332 11.0413 1.74797 11.252C1.69526 11.3574 1.65516 11.4419 1.62739 11.5021C1.6135 11.5321 1.60269 11.5561 1.59492 11.5736L1.58553 11.5949L1.58254 11.6018L1.58147 11.6042L1.58104 11.6052C1.58085 11.6057 1.58068 11.6061 2.49982 12L1.58104 11.6052C1.47323 11.8568 1.47287 12.1424 1.58068 12.3939L2.49982 12C1.58068 12.3939 1.58049 12.3935 1.58068 12.3939L1.58147 12.3958L1.58254 12.3982L1.58553 12.4051L1.59492 12.4264C1.60269 12.4439 1.6135 12.4679 1.62739 12.4979C1.65516 12.5581 1.69526 12.6426 1.74797 12.748C1.85332 12.9587 2.00946 13.2538 2.21865 13.6052C2.6359 14.3062 3.27038 15.2418 4.14203 16.1805C5.88472 18.0572 8.63167 20 12.4998 20C16.368 20 19.1149 18.0572 20.8576 16.1805C21.7293 15.2418 22.3637 14.3062 22.781 13.6052C22.9902 13.2538 23.1463 12.9587 23.2517 12.748C23.3044 12.6426 23.3445 12.5581 23.3723 12.4979C23.3861 12.4679 23.397 12.4439 23.4047 12.4264L23.4141 12.4051L23.4171 12.3982L23.4186 12.3948C23.4188 12.3943 23.419 12.3939 22.4998 12ZM22.4998 12L23.4186 12.3948C23.5264 12.1432 23.5264 11.8568 23.4186 11.6052L22.4998 12Z" fill="#070707"/>
<path fill-rule="evenodd" clip-rule="evenodd" d="M12.5 10C11.3954 10 10.5 10.8954 10.5 12C10.5 13.1046 11.3954 14 12.5 14C13.6046 14 14.5 13.1046 14.5 12C14.5 10.8954 13.6046 10 12.5 10ZM8.5 12C8.5 9.79086 10.2909 8 12.5 8C14.7091 8 16.5 9.79086 16.5 12C16.5 14.2091 14.7091 16 12.5 16C10.2909 16 8.5 14.2091 8.5 12Z" fill="#070707"/>
</svg>
